<svg width="383" height="69" viewBox="0 0 383 69" fill="none" xmlns="http://www.w3.org/2000/svg">
<path fill-rule="evenodd" clip-rule="evenodd" d="M70.8924 13.3083V7.97171H113.359V13.3083H111.452C109.79 13.3083 108.755 13.4968 108.314 13.8835C107.883 14.27 107.674 15.2319 107.674 16.7593V37.6436C107.674 39.2372 107.907 40.2271 108.372 40.6136C108.837 40.9908 110.046 41.1796 111.999 41.1796H113.359L118.404 52.5316L112.197 54.3229C111.138 52.1166 109.604 50.2593 107.604 48.7602C105.605 47.2607 102.408 46.5066 98.0021 46.5066H77.4257C73.043 46.5066 69.858 47.2515 67.8582 48.7412C65.8589 50.2403 64.3127 52.0979 63.2317 54.3229L57.0586 52.5316L62.1039 41.1796H63.8361C66.0912 41.1796 67.5793 40.2271 68.3351 38.332L76.7165 17.0042C76.9376 16.4385 77.0535 15.9766 77.0535 15.6279C77.0535 14.0815 75.7052 13.3083 72.9967 13.3083H70.8924ZM95.9213 40.4815V14.025H85.5983L76.914 37.9738C76.763 38.398 76.6817 38.7562 76.6817 39.0484C76.6817 40.0104 77.7745 40.4815 79.9834 40.4815H95.9213ZM120.381 7.97171H143.572V13.3083H141.422C139.934 13.3083 138.957 13.4876 138.492 13.8553C138.039 14.223 137.818 15.1941 137.818 16.7593V29.5445L155.116 16.4008C155.116 14.8547 154.86 13.9495 154.349 13.695C153.837 13.4308 152.768 13.3083 151.129 13.3083H149.327V7.97171H172.589V13.3083H170.647C168.997 13.3083 167.95 13.4968 167.52 13.8835C167.078 14.27 166.869 15.2319 166.869 16.7593V37.6436C166.869 39.2372 167.102 40.2271 167.567 40.6136C168.032 40.9908 169.252 41.1796 171.229 41.1796H172.589V46.5066H149.327V41.1796H150.861C152.768 41.1796 153.954 40.9721 154.418 40.5571C154.884 40.1423 155.116 39.1712 155.116 37.6436V24.6887L137.818 37.6436C137.841 38.9447 137.923 39.7747 138.05 40.1233C138.19 40.4723 138.492 40.7364 138.969 40.9153C139.445 41.085 140.445 41.1796 141.968 41.1796H143.572V46.5066H120.381V41.1796H121.95C123.81 41.1796 124.96 40.9721 125.403 40.5571C125.844 40.1423 126.065 39.2654 126.065 37.9452V17.0042C126.065 15.3639 125.844 14.3359 125.403 13.9213C124.96 13.5063 123.984 13.3083 122.496 13.3083H120.381V7.97171ZM194.932 7.97171H205.592L219.868 37.7191C220.635 39.3032 221.321 40.2836 221.925 40.6513C222.53 41.019 223.634 41.1983 225.239 41.1796V46.5066H202.767V41.1796L204.127 41.151C205.371 41.151 206.255 41.0098 206.755 40.7458C207.254 40.4815 207.499 40.1516 207.499 39.7651C207.499 39.4352 207.289 38.7562 206.848 37.7191L205.452 34.2116H190.979L189.212 38.1058C188.852 38.9355 188.666 39.4822 188.666 39.7369C188.666 40.0291 188.794 40.3026 189.061 40.5383C189.317 40.7833 189.747 40.9531 190.34 41.0663C190.723 41.1418 191.793 41.1796 193.537 41.1796V46.5066H175.146V41.1796C176.32 41.1796 177.192 41.0946 177.738 40.9248C178.273 40.7646 178.726 40.5101 179.075 40.1799C179.436 39.8499 179.819 39.2372 180.249 38.332L194.932 7.97171ZM193.467 28.7148H202.965L198.338 18.1074L193.467 28.7148ZM264.578 7.97171H269.414L274.075 21.8129L267.74 23.3028C265.636 20.0028 263.648 17.6645 261.788 16.2878C259.195 14.3927 256.394 13.4403 253.371 13.4403C251.174 13.4403 249.105 13.94 247.187 14.9302C245.268 15.9296 243.745 17.391 242.629 19.3238C241.502 21.2566 240.944 23.5195 240.944 26.1218C240.944 30.082 242.234 33.4857 244.803 36.3424C247.384 39.1994 250.756 40.6231 254.94 40.6231C257.591 40.6231 260.149 40.0104 262.601 38.7752C265.67 37.2476 268.309 35.1923 270.541 32.6087L275.819 35.7862C272.39 39.5859 269.251 42.226 266.415 43.7159C262.032 46.0164 257.15 47.1665 251.767 47.1665C247.303 47.1665 243.246 46.2991 239.63 44.5548C236.003 42.8199 233.12 40.3874 230.958 37.2571C228.807 34.1269 227.726 30.7041 227.726 27.0082C227.726 23.3215 228.773 19.9651 230.877 16.9382C232.981 13.9023 235.84 11.5452 239.456 9.84806C243.083 8.1602 247.117 7.31177 251.569 7.31177C256.08 7.31177 260.044 8.08496 263.45 9.63111L264.578 7.97171ZM279.388 7.97171H302.58V13.3083H300.43C298.941 13.3083 297.965 13.4876 297.5 13.8553C297.047 14.223 296.826 15.1941 296.826 16.7593V29.5445L314.124 16.4008C314.124 14.8547 313.868 13.9495 313.357 13.695C312.845 13.4308 311.776 13.3083 310.136 13.3083H308.335V7.97171H331.596V13.3083H329.655C328.004 13.3083 326.958 13.4968 326.528 13.8835C326.086 14.27 325.877 15.2319 325.877 16.7593V37.6436C325.877 39.2372 326.109 40.2271 326.574 40.6136C327.039 40.9908 328.26 41.1796 330.236 41.1796H331.596V46.5066H308.335V41.1796H309.869C311.776 41.1796 312.961 40.9721 313.426 40.5571C313.891 40.1423 314.124 39.1712 314.124 37.6436V24.6887L296.826 37.6436C296.849 38.9447 296.93 39.7747 297.058 40.1233C297.198 40.4723 297.5 40.7364 297.977 40.9153C298.453 41.085 299.453 41.1796 300.976 41.1796H302.58V46.5066H279.388V41.1796H280.957C282.817 41.1796 283.968 40.9721 284.41 40.5571C284.852 40.1423 285.073 39.2654 285.073 37.9452V17.0042C285.073 15.3639 284.852 14.3359 284.41 13.9213C283.968 13.5063 282.992 13.3083 281.504 13.3083H279.388V7.97171ZM354.207 23.2462H365.041C370.54 23.2462 374.841 24.3587 377.969 26.5932C381.084 28.8186 382.654 31.5906 382.654 34.9093C382.654 37.983 381.235 40.6796 378.399 43.0086C375.551 45.3375 370.97 46.5066 364.635 46.5066H336.77V41.1796H339.06C340.606 41.1796 341.559 40.9625 341.919 40.5383C342.28 40.1139 342.465 39.1994 342.465 37.7755V16.5896C342.465 15.2507 342.233 14.3643 341.78 13.94C341.326 13.5158 340.187 13.3083 338.374 13.3083H336.77V7.97171H376.423L381.828 20.1535L375.667 21.9449C374.098 18.9656 372.249 16.9195 370.098 15.8068C367.959 14.685 365.076 14.1287 361.461 14.1287H354.207V23.2462ZM354.207 40.2366H362.217C365.1 40.2366 367.169 39.7087 368.436 38.643C369.692 37.587 370.319 36.3332 370.319 34.8811C370.319 33.5326 369.889 32.4202 369.006 31.5338C368.134 30.6477 367.122 30.0537 365.983 29.7425C364.832 29.422 363.17 29.271 360.985 29.271H354.207V40.2366Z" fill="white"/>
<path fill-rule="evenodd" clip-rule="evenodd" d="M5.30699 63.3487L6.16011 64.0998C5.70389 64.6575 5.22778 65.062 4.73556 65.3149C4.24365 65.5679 3.71817 65.6934 3.15646 65.6934C2.25587 65.6934 1.50574 65.4007 0.902637 64.8129C0.301587 64.2254 0 63.5102 0 62.6653C0 62.0938 0.140805 61.5699 0.420368 61.0956C0.702285 60.6195 1.08719 60.2511 1.57736 59.9861C2.06722 59.7213 2.64662 59.5898 3.31336 59.5898C4.11097 59.5898 4.76366 59.775 5.26742 60.1476C5.77315 60.5181 6.0272 60.9105 6.0272 61.3229C6.0272 61.498 5.98756 61.6534 5.90834 61.793C5.82913 61.9305 5.70776 62.0419 5.54516 62.1277C5.3824 62.2132 5.20993 62.2571 5.02743 62.2571C4.8807 62.2571 4.74786 62.2273 4.63257 62.1696C4.51554 62.1097 4.4184 62.036 4.34071 61.9463C4.30721 61.9083 4.23772 61.7869 4.13861 61.5859C4.0095 61.3329 3.91039 61.1655 3.84112 61.0838C3.77156 61.0021 3.68824 60.9382 3.59088 60.8945C3.49382 60.8486 3.38468 60.8268 3.25967 60.8268C3.05932 60.8268 2.86687 60.8925 2.68239 61.0219C2.49784 61.1534 2.34708 61.3506 2.228 61.6135C2.11096 61.8786 2.05142 62.1754 2.05142 62.502C2.05142 62.8587 2.12091 63.1815 2.25989 63.4684C2.40047 63.7531 2.58708 63.9704 2.82115 64.1178C3.05522 64.2672 3.31541 64.3409 3.5968 64.3409C3.86869 64.3409 4.14264 64.2672 4.41635 64.1178C4.69212 63.9704 4.98755 63.7133 5.30699 63.3487ZM10.3684 59.7293V60.8566H10.1939C9.98149 60.8566 9.8466 60.8866 9.79314 60.9464C9.73747 61.006 9.71165 61.1614 9.71165 61.4105V62.6834L11.553 61.4105C11.553 61.1575 11.5272 61.0021 11.4714 60.9444C11.4178 60.8845 11.2851 60.8566 11.0707 60.8566H10.8962V59.7293H14.2747V60.8566H14.1063C13.7947 60.8566 13.6024 60.8825 13.527 60.9382C13.4515 60.9922 13.414 61.1336 13.414 61.3627V63.9265C13.414 64.1517 13.4515 64.2911 13.5249 64.3468C13.5983 64.4005 13.7909 64.4285 14.1063 64.4285H14.2747V65.554H10.8962V64.4285H11.0707C11.289 64.4285 11.4239 64.3966 11.4753 64.3368C11.5272 64.277 11.553 64.1216 11.553 63.8728V62.6117L9.71165 63.8728C9.71165 64.1257 9.73747 64.2811 9.79314 64.3409C9.8466 64.3987 9.98149 64.4285 10.1939 64.4285H10.3684V65.554H6.99166V64.4285H7.16011C7.46983 64.4285 7.66228 64.4005 7.73769 64.3468C7.81303 64.2911 7.85063 64.1517 7.85063 63.9265V61.3627C7.85063 61.1375 7.81486 60.996 7.74149 60.9402C7.66638 60.8845 7.4737 60.8566 7.16011 60.8566H6.99166V59.7293H10.3684ZM21.957 56.5379C21.9312 56.8566 21.8358 57.2053 21.6733 57.5856C21.5105 57.9641 21.2884 58.2291 21.0044 58.3806C20.7208 58.5339 20.2467 58.6097 19.58 58.6097H18.1853C17.5702 58.6097 17.1337 58.7391 16.8779 58.9961C16.622 59.255 16.4593 59.7351 16.3898 60.4365L16.4889 60.4701C16.9949 59.8826 17.6972 59.5898 18.592 59.5898C19.4136 59.5898 20.1437 59.8448 20.7842 60.3546C21.4231 60.8646 21.7425 61.6197 21.7425 62.6235C21.7425 63.5341 21.4489 64.2731 20.8598 64.843C20.2705 65.4104 19.4828 65.6934 18.4989 65.6934C16.3144 65.6934 15.2213 64.3887 15.2213 61.7769C15.2213 61.0939 15.3026 60.3307 15.4654 59.4941C15.628 58.6554 15.9415 58.0281 16.4076 57.6136C16.8718 57.1992 17.4869 56.9922 18.2488 56.9922H19.9352C20.4113 56.9922 20.7228 56.9424 20.8677 56.8407C21.0124 56.739 21.1274 56.5618 21.213 56.3088L21.957 56.5379ZM19.709 62.6476C19.709 62.0758 19.5978 61.6357 19.3799 61.3288C19.1616 61.0219 18.8677 60.8666 18.4989 60.8666C18.1575 60.8666 17.868 61.0122 17.628 61.299C17.3877 61.5876 17.2668 62.0301 17.2668 62.6297C17.2668 63.2214 17.376 63.6694 17.5963 63.9763C17.8143 64.2811 18.1041 64.4323 18.4652 64.4323C18.8023 64.4323 19.0941 64.289 19.34 64.0023C19.5861 63.7133 19.709 63.2632 19.709 62.6476ZM26.0856 59.7293V60.8566H25.911C25.6987 60.8566 25.5637 60.8866 25.5103 60.9464C25.4548 61.006 25.4288 61.1614 25.4288 61.4105V62.6834L27.2701 61.4105C27.2701 61.1575 27.2443 61.0021 27.1886 60.9444C27.1349 60.8845 27.0023 60.8566 26.7879 60.8566H26.6133V59.7293H29.9919V60.8566H29.8235C29.5119 60.8566 29.3195 60.8825 29.2441 60.9382C29.1687 60.9922 29.1311 61.1336 29.1311 61.3627V63.9265C29.1311 64.1517 29.1687 64.2911 29.242 64.3468C29.3154 64.4005 29.5081 64.4285 29.8235 64.4285H29.9919V65.554H26.6133V64.4285H26.7879C27.0061 64.4285 27.1411 64.3966 27.1924 64.3368C27.2443 64.277 27.2701 64.1216 27.2701 63.8728V62.6117L25.4288 63.8728C25.4288 64.1257 25.4548 64.2811 25.5103 64.3409C25.5637 64.3987 25.6987 64.4285 25.911 64.4285H26.0856V65.554H22.7089V64.4285H22.8772C23.187 64.4285 23.3794 64.4005 23.4548 64.3468C23.5302 64.2911 23.5678 64.1517 23.5678 63.9265V61.3627C23.5678 61.1375 23.532 60.996 23.4586 60.9402C23.3835 60.8845 23.1908 60.8566 22.8772 60.8566H22.7089V59.7293H26.0856ZM33.4719 59.5898V60.2372C33.9142 59.9642 34.2516 59.7889 34.4877 59.7093C34.7218 59.6296 34.9717 59.5898 35.2396 59.5898C35.9184 59.5898 36.4697 59.8407 36.8964 60.3427C37.3845 60.9184 37.6286 61.6534 37.6286 62.5481C37.6286 63.4044 37.4163 64.1195 36.9897 64.6953C36.5013 65.3609 35.8468 65.6934 35.0254 65.6934C34.7617 65.6934 34.5294 65.6636 34.3329 65.6038C34.1346 65.544 33.9204 65.4325 33.6883 65.2731V66.4464C33.6883 66.6795 33.7004 66.821 33.7221 66.8667C33.7497 66.9245 33.7933 66.9663 33.8529 66.9923C33.9124 67.0181 34.0633 67.03 34.3032 67.03H34.5769V68.1576H30.9622V67.03H31.1585C31.4264 67.03 31.5891 67.0202 31.6449 66.9982C31.7003 66.9763 31.7458 66.9324 31.7775 66.8648C31.8113 66.7971 31.8271 66.6577 31.8271 66.4464V61.2173H30.9622V60.0857C31.3809 60.0341 31.7358 59.9722 32.0315 59.8985C32.3252 59.8248 32.625 59.7213 32.9262 59.5898H33.4719ZM33.6883 61.4105V63.313C33.6883 63.6116 33.7162 63.8247 33.7716 63.9524C33.8271 64.078 33.9242 64.1814 34.0633 64.261C34.2 64.3409 34.3587 64.3808 34.5355 64.3808C34.8509 64.3808 35.1108 64.2351 35.317 63.9423C35.5256 63.6514 35.6285 63.2072 35.6285 62.6117C35.6285 62.0599 35.5394 61.6516 35.3587 61.3845C35.1782 61.1178 34.9559 60.9842 34.694 60.9842C34.3906 60.9842 34.0554 61.1257 33.6883 61.4105ZM43.8837 63.3487L44.7371 64.0998C44.2806 64.6575 43.8045 65.062 43.3126 65.3149C42.8204 65.5679 42.2949 65.6934 41.7332 65.6934C40.8326 65.6934 40.0826 65.4007 39.4794 64.8129C38.8783 64.2254 38.5767 63.5102 38.5767 62.6653C38.5767 62.0938 38.7176 61.5699 38.9971 61.0956C39.279 60.6195 39.6639 60.2511 40.1541 59.9861C40.644 59.7213 41.2234 59.5898 41.8901 59.5898C42.6877 59.5898 43.3404 59.775 43.8442 60.1476C44.3499 60.5181 44.604 60.9105 44.604 61.3229C44.604 61.498 44.5643 61.6534 44.4851 61.793C44.4059 61.9305 44.2845 62.0419 44.122 62.1277C43.9592 62.2132 43.7867 62.2571 43.6042 62.2571C43.4575 62.2571 43.3246 62.2273 43.2093 62.1696C43.0923 62.1097 42.9951 62.036 42.9175 61.9463C42.884 61.9083 42.8145 61.7869 42.7154 61.5859C42.5866 61.3329 42.4871 61.1655 42.4179 61.0838C42.3484 61.0021 42.2651 60.9382 42.1677 60.8945C42.0706 60.8486 41.9614 60.8268 41.8365 60.8268C41.6361 60.8268 41.4437 60.8925 41.2591 61.0219C41.0746 61.1534 40.9238 61.3506 40.805 61.6135C40.6877 61.8786 40.6282 62.1754 40.6282 62.502C40.6282 62.8587 40.6977 63.1815 40.8367 63.4684C40.9772 63.7531 41.1641 63.9704 41.3979 64.1178C41.632 64.2672 41.8922 64.3409 42.1735 64.3409C42.4454 64.3409 42.7195 64.2672 42.9931 64.1178C43.2689 63.9704 43.5643 63.7133 43.8837 63.3487ZM45.5685 65.554V64.4285H45.7369C46.0466 64.4285 46.239 64.4005 46.3144 64.3468C46.3899 64.2911 46.4274 64.1517 46.4274 63.9265V61.3627C46.4274 61.1375 46.3916 60.996 46.3182 60.9402C46.2431 60.8845 46.0504 60.8566 45.7369 60.8566H45.5685V59.7293H48.7824V60.8566C48.5503 60.8566 48.4095 60.8866 48.3599 60.9483C48.3124 61.0122 48.2884 61.1396 48.2884 61.3347V62.2453L49.5266 61.2811C49.693 61.1534 49.7766 61.0578 49.7766 60.996C49.7766 60.9025 49.6117 60.8566 49.2823 60.8566V59.7293H52.6534V60.8566C52.4291 60.8566 52.2565 60.8787 52.1354 60.9264C52.0163 60.9722 51.8159 61.0918 51.5364 61.2811L50.3102 62.1218L51.9153 63.9963C52.0858 64.1935 52.2228 64.315 52.324 64.3607C52.427 64.4046 52.6255 64.4285 52.921 64.4285V65.554H49.3917V64.4285H49.5266C49.7587 64.4285 49.8757 64.3807 49.8757 64.287C49.8757 64.2292 49.8124 64.1178 49.6892 63.9545L49.0206 63.0919L48.2884 63.6396V63.9545C48.2884 64.1417 48.3183 64.2672 48.3779 64.3309C48.4374 64.3946 48.5542 64.4285 48.7249 64.4285H48.8461V65.554H45.5685ZM56.8396 59.7293V60.8566H56.665C56.4526 60.8566 56.3177 60.8866 56.2643 60.9464C56.2088 61.006 56.183 61.1614 56.183 61.4105V62.6834L58.0241 61.4105C58.0241 61.1575 57.9983 61.0021 57.9429 60.9444C57.8889 60.8845 57.7562 60.8566 57.5419 60.8566H57.3673V59.7293H60.7459V60.8566H60.5774C60.2659 60.8566 60.0735 60.8825 59.9981 60.9382C59.9227 60.9922 59.8851 61.1336 59.8851 61.3627V63.9265C59.8851 64.1517 59.9227 64.2911 59.996 64.3468C60.0694 64.4005 60.2621 64.4285 60.5774 64.4285H60.7459V65.554H57.3673V64.4285H57.5419C57.7601 64.4285 57.895 64.3966 57.9467 64.3368C57.9983 64.277 58.0241 64.1216 58.0241 63.8728V62.6117L56.183 63.8728C56.183 64.1257 56.2088 64.2811 56.2643 64.3409C56.3177 64.3987 56.4526 64.4285 56.665 64.4285H56.8396V65.554H53.4628V64.4285H53.6312C53.9409 64.4285 54.1334 64.4005 54.2088 64.3468C54.2842 64.2911 54.3217 64.1517 54.3217 63.9265V61.3627C54.3217 61.1375 54.286 60.996 54.2126 60.9402C54.1375 60.8845 53.9448 60.8566 53.6312 60.8566H53.4628V59.7293H56.8396ZM65.1745 59.7293V60.8566H64.9997C64.7876 60.8566 64.6524 60.8866 64.599 60.9464C64.5435 61.006 64.5177 61.1614 64.5177 61.4105V62.6834L66.3587 61.4105C66.3587 61.1575 66.3329 61.0021 66.2775 60.9444C66.2238 60.8845 66.091 60.8566 65.8768 60.8566H65.702V59.7293H69.0808V60.8566H68.9121C68.6006 60.8566 68.4084 60.8825 68.333 60.9382C68.2574 60.9922 68.2198 61.1336 68.2198 61.3627V63.9265C68.2198 64.1517 68.2574 64.2911 68.331 64.3468C68.4043 64.4005 68.5967 64.4285 68.9121 64.4285H69.0808V65.554H65.702V64.4285H65.8768C66.0948 64.4285 66.2299 64.3966 66.2814 64.3368C66.3329 64.277 66.3587 64.1216 66.3587 63.8728V62.6117L64.5177 63.8728C64.5177 64.1257 64.5435 64.2811 64.599 64.3409C64.6524 64.3987 64.7876 64.4285 64.9997 64.4285H65.1745V65.554H61.7975V64.4285H61.9662C62.2759 64.4285 62.4681 64.4005 62.5435 64.3468C62.6191 64.2911 62.6567 64.1517 62.6567 63.9265V61.3627C62.6567 61.1375 62.6209 60.996 62.5473 60.9402C62.4721 60.8845 62.2798 60.8566 61.9662 60.8566H61.7975V59.7293H65.1745ZM62.7975 57.3306C62.7975 57.1095 62.8729 56.9283 63.0237 56.7908C63.1744 56.6535 63.3572 56.5836 63.5693 56.5836C63.7597 56.5836 63.9125 56.6314 64.0296 56.7292C64.1446 56.8268 64.2537 56.9842 64.3549 57.2033C64.4781 57.4701 64.6048 57.6513 64.7359 57.743C64.8647 57.8347 65.0932 57.8786 65.4183 57.8786C65.7398 57.8786 65.968 57.8347 66.1007 57.743C66.2338 57.6513 66.3626 57.4701 66.4876 57.2033C66.5929 56.9881 66.704 56.8327 66.8249 56.7331C66.944 56.6335 67.1048 56.5836 67.3072 56.5836C67.5313 56.5836 67.7178 56.6535 67.8646 56.7949C68.0115 56.9344 68.0869 57.1095 68.0869 57.3188C68.0869 57.7053 67.8666 58.0419 67.4301 58.3347C66.9918 58.6256 66.3329 58.773 65.4523 58.773C64.9105 58.773 64.4681 58.7252 64.1249 58.6295C63.7817 58.5339 63.474 58.3706 63.2041 58.1353C62.9321 57.9024 62.7975 57.6336 62.7975 57.3306ZM74.1719 65.554V64.4285H74.3402C74.6497 64.4285 74.8425 64.4005 74.9178 64.3468C74.993 64.2911 75.0308 64.1517 75.0308 63.9265V61.3627C75.0308 61.1375 74.995 60.996 74.9217 60.9402C74.8483 60.8845 74.6538 60.8566 74.3402 60.8566H74.1719V59.7293H77.5483V60.8566C77.2353 60.8566 77.0467 60.8807 76.9851 60.9323C76.9217 60.9821 76.8921 61.1416 76.8921 61.4105V64.2929H78.7349V61.4105C78.7349 61.1455 78.7033 60.988 78.6419 60.9344C78.5783 60.8825 78.3917 60.8566 78.0784 60.8566V59.7293H81.4549V60.8566H81.2865C80.9749 60.8566 80.7823 60.8825 80.7071 60.9382C80.6317 60.9922 80.5939 61.1336 80.5939 61.3627V63.9265C80.5939 64.1517 80.6317 64.2911 80.7071 64.3468C80.7823 64.4005 80.9867 64.4285 81.3202 64.4285H81.6059L82.4707 66.2591L81.4549 66.7334C81.207 66.285 80.9749 65.9764 80.7605 65.8069C80.5443 65.6377 80.1832 65.554 79.6754 65.554H74.1719ZM87.8197 63.3947L88.615 64.1994C88.1588 64.7253 87.6927 65.1059 87.2186 65.3408C86.7443 65.5758 86.2306 65.6934 85.6809 65.6934C84.7981 65.6934 84.0539 65.3927 83.4488 64.7932C82.8436 64.1915 82.542 63.4643 82.542 62.6117C82.542 62.0519 82.6772 61.5399 82.9489 61.0738C83.2206 60.6095 83.5955 60.2451 84.076 59.9842C84.5579 59.7213 85.1018 59.5898 85.7105 59.5898C86.0975 59.5898 86.4506 59.6456 86.7681 59.759C87.0855 59.8705 87.3633 60.034 87.6014 60.2431C87.8394 60.4524 88.0321 60.7073 88.1767 61.004C88.3216 61.3029 88.4228 61.6097 88.4762 61.9305C88.5 62.0897 88.512 62.3429 88.512 62.6892H84.5996C84.6075 63.1833 84.7524 63.5819 85.032 63.8887C85.3139 64.1935 85.6571 64.3468 86.0637 64.3468C86.3236 64.3468 86.6075 64.2672 86.913 64.1098C87.2186 63.9524 87.5219 63.7133 87.8197 63.3947ZM86.6571 61.7073C86.6292 61.4741 86.5756 61.2911 86.4923 61.1555C86.409 61.0219 86.296 60.9143 86.1552 60.8347C86.0121 60.7551 85.8654 60.7154 85.7105 60.7154C85.548 60.7154 85.389 60.7572 85.2385 60.8388C85.0877 60.9205 84.9666 61.0299 84.8753 61.1714C84.7841 61.3108 84.7249 61.4901 84.6987 61.7073H86.6571ZM92.266 63.1317V63.8728C92.266 64.1257 92.2918 64.2811 92.3473 64.3409C92.4007 64.3987 92.5356 64.4285 92.748 64.4285H92.9228V65.554H89.5458V64.4285H89.7145C90.024 64.4285 90.2164 64.4005 90.2917 64.3468C90.3672 64.2911 90.4047 64.1517 90.4047 63.9265V61.3627C90.4047 61.1375 90.3689 60.996 90.2956 60.9402C90.2204 60.8845 90.0278 60.8566 89.7145 60.8566H89.5458V59.7293H92.9228V60.8566H92.748C92.5356 60.8566 92.4007 60.8866 92.3473 60.9464C92.2918 61.006 92.266 61.1614 92.266 61.4105V62.024H94.107V61.4105C94.107 61.1575 94.0812 61.0021 94.0258 60.9444C93.9719 60.8845 93.8393 60.8566 93.6248 60.8566H93.4503V59.7293H96.8288V60.8566H96.6604C96.3489 60.8566 96.1566 60.8825 96.081 60.9382C96.0057 60.9922 95.9681 61.1336 95.9681 61.3627V63.9265C95.9681 64.1517 96.0057 64.2911 96.079 64.3468C96.1526 64.4005 96.345 64.4285 96.6604 64.4285H96.8288V65.554H93.4503V64.4285H93.6248C93.8431 64.4285 93.978 64.3966 94.0297 64.3368C94.0812 64.277 94.107 64.1216 94.107 63.8728V63.1317H92.266ZM103.351 59.4542H104.128L105.011 61.7132L103.995 62.1813C103.626 61.3288 103.094 60.9025 102.396 60.9025C102.194 60.9025 102.094 61.0281 102.094 61.2769V63.9265C102.094 64.1517 102.13 64.2911 102.204 64.3468C102.277 64.4005 102.471 64.4285 102.785 64.4285H102.954V65.554H99.3747V64.4285H99.5431C99.8526 64.4285 100.045 64.4005 100.12 64.3468C100.196 64.2911 100.234 64.1517 100.234 63.9265V61.2769C100.234 61.0281 100.13 60.9025 99.926 60.9025C99.2275 60.9025 98.698 61.3288 98.3331 62.1813L97.3172 61.7132L98.1999 59.4542H98.9717L99.0711 59.7293H103.251L103.351 59.4542ZM107.929 59.5898V60.2372C108.372 59.9642 108.709 59.7889 108.945 59.7093C109.179 59.6296 109.429 59.5898 109.697 59.5898C110.376 59.5898 110.927 59.8407 111.354 60.3427C111.842 60.9184 112.086 61.6534 112.086 62.5481C112.086 63.4044 111.874 64.1195 111.447 64.6953C110.959 65.3609 110.304 65.6934 109.483 65.6934C109.219 65.6934 108.987 65.6636 108.79 65.6038C108.592 65.544 108.378 65.4325 108.146 65.2731V66.4464C108.146 66.6795 108.158 66.821 108.179 66.8667C108.207 66.9245 108.251 66.9663 108.31 66.9923C108.37 67.0181 108.521 67.03 108.761 67.03H109.034V68.1576H105.42V67.03H105.616C105.884 67.03 106.046 67.0202 106.102 66.9982C106.158 66.9763 106.203 66.9324 106.235 66.8648C106.269 66.7971 106.285 66.6577 106.285 66.4464V61.2173H105.42V60.0857C105.838 60.0341 106.193 59.9722 106.489 59.8985C106.782 59.8248 107.082 59.7213 107.384 59.5898H107.929ZM108.146 61.4105V63.313C108.146 63.6116 108.174 63.8247 108.229 63.9524C108.285 64.078 108.382 64.1814 108.521 64.261C108.658 64.3409 108.816 64.3808 108.993 64.3808C109.308 64.3808 109.568 64.2351 109.775 63.9423C109.983 63.6514 110.086 63.2072 110.086 62.6117C110.086 62.0599 109.997 61.6516 109.816 61.3845C109.636 61.1178 109.414 60.9842 109.152 60.9842C108.848 60.9842 108.513 61.1257 108.146 61.4105ZM122.637 59.4542H123.415L124.297 61.7132L123.282 62.1813C122.913 61.3288 122.381 60.9025 121.682 60.9025C121.48 60.9025 121.381 61.0281 121.381 61.2769V63.9265C121.381 64.1517 121.417 64.2911 121.49 64.3468C121.563 64.4005 121.758 64.4285 122.071 64.4285H122.24V65.554H118.661V64.4285H118.83C119.139 64.4285 119.331 64.4005 119.407 64.3468C119.482 64.2911 119.52 64.1517 119.52 63.9265V61.2769C119.52 61.0281 119.417 60.9025 119.212 60.9025C118.514 60.9025 117.984 61.3288 117.619 62.1813L116.604 61.7132L117.486 59.4542H118.258L118.357 59.7293H122.537L122.637 59.4542ZM129.966 63.3947L130.761 64.1994C130.305 64.7253 129.839 65.1059 129.365 65.3408C128.89 65.5758 128.377 65.6934 127.827 65.6934C126.944 65.6934 126.2 65.3927 125.595 64.7932C124.99 64.1915 124.688 63.4643 124.688 62.6117C124.688 62.0519 124.823 61.5399 125.095 61.0738C125.367 60.6095 125.741 60.2451 126.222 59.9842C126.704 59.7213 127.248 59.5898 127.856 59.5898C128.243 59.5898 128.597 59.6456 128.914 59.759C129.231 59.8705 129.509 60.034 129.747 60.2431C129.985 60.4524 130.178 60.7073 130.323 61.004C130.468 61.3029 130.569 61.6097 130.622 61.9305C130.646 62.0897 130.658 62.3429 130.658 62.6892H126.746C126.754 63.1833 126.898 63.5819 127.178 63.8887C127.46 64.1935 127.803 64.3468 128.21 64.3468C128.47 64.3468 128.754 64.2672 129.059 64.1098C129.365 63.9524 129.668 63.7133 129.966 63.3947ZM128.803 61.7073C128.775 61.4741 128.722 61.2911 128.639 61.1555C128.555 61.0219 128.442 60.9143 128.301 60.8347C128.158 60.7551 128.011 60.7154 127.856 60.7154C127.694 60.7154 127.535 60.7572 127.384 60.8388C127.234 60.9205 127.113 61.0299 127.021 61.1714C126.93 61.3108 126.871 61.4901 126.845 61.7073H128.803ZM131.436 59.7293H134.963V60.8566C134.773 60.8566 134.654 60.8706 134.602 60.9025C134.553 60.9344 134.527 60.9801 134.527 61.042C134.527 61.1056 134.578 61.2073 134.68 61.3527L135.184 62.046L135.695 61.3527C135.805 61.2032 135.858 61.0977 135.858 61.0299C135.858 60.9683 135.834 60.9244 135.787 60.8966C135.737 60.8686 135.596 60.8566 135.364 60.8566V59.7293H138.068V60.8566C137.834 60.8566 137.664 60.8807 137.553 60.9285C137.443 60.9783 137.32 61.0797 137.183 61.235L136.051 62.5539L137.283 63.8967C137.495 64.1257 137.664 64.2711 137.788 64.3347C137.912 64.3966 138.096 64.4285 138.34 64.4285V65.554H134.62V64.4285H134.831C134.997 64.4285 135.104 64.4126 135.156 64.3808C135.205 64.3489 135.231 64.3088 135.231 64.2593C135.231 64.2074 135.174 64.1057 135.057 63.9545L134.283 62.9563L133.592 63.8967C133.448 64.0877 133.376 64.2094 133.376 64.2651C133.376 64.315 133.4 64.3548 133.446 64.3846C133.493 64.4126 133.594 64.4285 133.749 64.4285H133.999V65.554H131.138V64.4285C131.313 64.4323 131.45 64.4205 131.549 64.3925C131.648 64.3648 131.735 64.325 131.811 64.269C131.886 64.2153 131.987 64.1098 132.116 63.9545L133.43 62.4484L132.331 61.235C132.192 61.0838 132.065 60.9821 131.95 60.9323C131.835 60.8807 131.664 60.8566 131.436 60.8566V59.7293ZM141.556 63.1317V63.8728C141.556 64.1257 141.582 64.2811 141.637 64.3409C141.691 64.3987 141.826 64.4285 142.038 64.4285H142.213V65.554H138.836V64.4285H139.005C139.314 64.4285 139.507 64.4005 139.582 64.3468C139.657 64.2911 139.695 64.1517 139.695 63.9265V61.3627C139.695 61.1375 139.659 60.996 139.586 60.9402C139.511 60.8845 139.318 60.8566 139.005 60.8566H138.836V59.7293H142.213V60.8566H142.038C141.826 60.8566 141.691 60.8866 141.637 60.9464C141.582 61.006 141.556 61.1614 141.556 61.4105V62.024H143.397V61.4105C143.397 61.1575 143.371 61.0021 143.316 60.9444C143.262 60.8845 143.129 60.8566 142.915 60.8566H142.74V59.7293H146.119V60.8566H145.951C145.639 60.8566 145.447 60.8825 145.371 60.9382C145.296 60.9922 145.258 61.1336 145.258 61.3627V63.9265C145.258 64.1517 145.296 64.2911 145.369 64.3468C145.443 64.4005 145.635 64.4285 145.951 64.4285H146.119V65.554H142.74V64.4285H142.915C143.133 64.4285 143.268 64.3966 143.32 64.3368C143.371 64.277 143.397 64.1216 143.397 63.8728V63.1317H141.556ZM150.548 59.7293V60.8566H150.373C150.161 60.8566 150.026 60.8866 149.972 60.9464C149.917 61.006 149.891 61.1614 149.891 61.4105V62.6834L151.732 61.4105C151.732 61.1575 151.706 61.0021 151.651 60.9444C151.597 60.8845 151.464 60.8566 151.25 60.8566H151.075V59.7293H154.454V60.8566H154.285C153.974 60.8566 153.782 60.8825 153.706 60.9382C153.631 60.9922 153.593 61.1336 153.593 61.3627V63.9265C153.593 64.1517 153.631 64.2911 153.704 64.3468C153.777 64.4005 153.97 64.4285 154.285 64.4285H154.454V65.554H151.075V64.4285H151.25C151.468 64.4285 151.603 64.3966 151.655 64.3368C151.706 64.277 151.732 64.1216 151.732 63.8728V62.6117L149.891 63.8728C149.891 64.1257 149.917 64.2811 149.972 64.3409C150.026 64.3987 150.161 64.4285 150.373 64.4285H150.548V65.554H147.171V64.4285H147.339C147.649 64.4285 147.841 64.4005 147.917 64.3468C147.992 64.2911 148.03 64.1517 148.03 63.9265V61.3627C148.03 61.1375 147.994 60.996 147.921 60.9402C147.845 60.8845 147.653 60.8566 147.339 60.8566H147.171V59.7293H150.548ZM162.305 65.554H158.726V64.4285H158.894C159.208 64.4285 159.402 64.4005 159.476 64.3468C159.549 64.2911 159.585 64.1517 159.585 63.9265V63.313H157.835C157.321 63.313 156.934 63.2491 156.676 63.1237C156.418 62.9961 156.222 62.819 156.087 62.5917C155.95 62.3647 155.883 62.044 155.883 61.6316V61.3627C155.883 61.1416 155.847 61.0021 155.776 60.9444C155.704 60.8845 155.51 60.8566 155.19 60.8566H155.023V59.7293H158.4V60.8566H158.226C158.055 60.8566 157.932 60.8725 157.857 60.9046C157.781 60.9382 157.744 61.0918 157.744 61.3627V61.5738C157.744 61.8187 157.797 61.9841 157.906 62.0699C158.013 62.1554 158.226 62.1973 158.539 62.1973H159.585V61.4105C159.585 61.1575 159.559 61.0021 159.503 60.9444C159.45 60.8845 159.317 60.8566 159.103 60.8566H158.928V59.7293H162.305V60.8566H162.136C161.827 60.8566 161.634 60.8825 161.559 60.9382C161.484 60.9922 161.445 61.1336 161.445 61.3627V63.9265C161.445 64.1517 161.481 64.2911 161.555 64.3468C161.63 64.4005 161.822 64.4285 162.136 64.4285H162.305V65.554ZM168.531 63.3947L169.326 64.1994C168.87 64.7253 168.404 65.1059 167.93 65.3408C167.455 65.5758 166.942 65.6934 166.392 65.6934C165.509 65.6934 164.765 65.3927 164.16 64.7932C163.555 64.1915 163.253 63.4643 163.253 62.6117C163.253 62.0519 163.388 61.5399 163.66 61.0738C163.932 60.6095 164.306 60.2451 164.787 59.9842C165.269 59.7213 165.813 59.5898 166.421 59.5898C166.808 59.5898 167.162 59.6456 167.479 59.759C167.796 59.8705 168.074 60.034 168.312 60.2431C168.55 60.4524 168.743 60.7073 168.888 61.004C169.033 61.3029 169.134 61.6097 169.187 61.9305C169.211 62.0897 169.223 62.3429 169.223 62.6892H165.311C165.318 63.1833 165.463 63.5819 165.743 63.8887C166.025 64.1935 166.368 64.3468 166.775 64.3468C167.035 64.3468 167.318 64.2672 167.624 64.1098C167.93 63.9524 168.233 63.7133 168.531 63.3947ZM167.368 61.7073C167.34 61.4741 167.287 61.2911 167.203 61.1555C167.12 61.0219 167.007 60.9143 166.866 60.8347C166.723 60.7551 166.576 60.7154 166.421 60.7154C166.259 60.7154 166.1 60.7572 165.949 60.8388C165.799 60.9205 165.678 61.0299 165.586 61.1714C165.495 61.3108 165.436 61.4901 165.41 61.7073H167.368ZM175.477 63.3487L176.33 64.0998C175.874 64.6575 175.397 65.062 174.905 65.3149C174.413 65.5679 173.887 65.6934 173.326 65.6934C172.425 65.6934 171.675 65.4007 171.072 64.8129C170.471 64.2254 170.17 63.5102 170.17 62.6653C170.17 62.0938 170.31 61.5699 170.59 61.0956C170.872 60.6195 171.257 60.2511 171.747 59.9861C172.237 59.7213 172.816 59.5898 173.483 59.5898C174.28 59.5898 174.933 59.775 175.437 60.1476C175.943 60.5181 176.197 60.9105 176.197 61.3229C176.197 61.498 176.157 61.6534 176.078 61.793C175.998 61.9305 175.877 62.0419 175.715 62.1277C175.552 62.2132 175.379 62.2571 175.197 62.2571C175.05 62.2571 174.917 62.2273 174.802 62.1696C174.685 62.1097 174.588 62.036 174.51 61.9463C174.477 61.9083 174.407 61.7869 174.308 61.5859C174.179 61.3329 174.08 61.1655 174.011 61.0838C173.941 61.0021 173.858 60.9382 173.761 60.8945C173.663 60.8486 173.554 60.8268 173.429 60.8268C173.229 60.8268 173.036 60.8925 172.852 61.0219C172.667 61.1534 172.516 61.3506 172.398 61.6135C172.281 61.8786 172.221 62.1754 172.221 62.502C172.221 62.8587 172.29 63.1815 172.429 63.4684C172.57 63.7531 172.757 63.9704 172.991 64.1178C173.225 64.2672 173.485 64.3409 173.766 64.3409C174.038 64.3409 174.312 64.2672 174.586 64.1178C174.862 63.9704 175.157 63.7133 175.477 63.3487ZM177.161 65.554V64.4285H177.33C177.639 64.4285 177.832 64.4005 177.907 64.3468C177.983 64.2911 178.02 64.1517 178.02 63.9265V61.3627C178.02 61.1375 177.984 60.996 177.911 60.9402C177.836 60.8845 177.643 60.8566 177.33 60.8566H177.161V59.7293H180.375V60.8566C180.143 60.8566 180.002 60.8866 179.953 60.9483C179.905 61.0122 179.881 61.1396 179.881 61.3347V62.2453L181.119 61.2811C181.286 61.1534 181.369 61.0578 181.369 60.996C181.369 60.9025 181.205 60.8566 180.875 60.8566V59.7293H184.246V60.8566C184.022 60.8566 183.849 60.8787 183.728 60.9264C183.609 60.9722 183.409 61.0918 183.129 61.2811L181.903 62.1218L183.508 63.9963C183.679 64.1935 183.815 64.315 183.917 64.3607C184.02 64.4046 184.218 64.4285 184.514 64.4285V65.554H180.984V64.4285H181.119C181.351 64.4285 181.469 64.3807 181.469 64.287C181.469 64.2292 181.405 64.1178 181.282 63.9545L180.613 63.0919L179.881 63.6396V63.9545C179.881 64.1417 179.911 64.2672 179.97 64.3309C180.03 64.3946 180.147 64.4285 180.318 64.4285H180.439V65.554H177.161ZM188.206 59.5898C188.869 59.5898 189.446 59.7193 189.938 59.9802C190.43 60.241 190.809 60.5957 191.073 61.0458C191.339 61.4942 191.472 62.0221 191.472 62.6235C191.472 63.5341 191.178 64.2731 190.589 64.843C189.999 65.4104 189.212 65.6934 188.228 65.6934C187.224 65.6934 186.426 65.4087 185.833 64.8368C185.26 64.2911 184.974 63.5538 184.974 62.6235C184.974 62.0142 185.105 61.4882 185.365 61.0478C185.627 60.6095 186.006 60.2552 186.502 59.9902C186.998 59.7231 187.565 59.5898 188.206 59.5898ZM188.228 60.8666C188.008 60.8666 187.799 60.9344 187.607 61.0659C187.412 61.1974 187.262 61.3925 187.156 61.6495C187.049 61.9066 186.996 62.2332 186.996 62.6297C186.996 63.038 187.049 63.3766 187.153 63.6456C187.258 63.9144 187.402 64.1116 187.587 64.2413C187.77 64.3686 187.972 64.4323 188.194 64.4323C188.535 64.4323 188.827 64.289 189.071 63.9981C189.315 63.7092 189.438 63.259 189.438 62.6476C189.438 62.056 189.325 61.6118 189.097 61.3149C188.871 61.016 188.581 60.8666 188.228 60.8666Z" fill="white"/>
<path fill-rule="evenodd" clip-rule="evenodd" d="M195.814 59.7293V60.8565H195.639C195.427 60.8565 195.292 60.8866 195.238 60.9464C195.183 61.006 195.157 61.1614 195.157 61.4105V62.6833L196.998 61.4105C196.998 61.1575 196.972 61.0021 196.917 60.9443C196.863 60.8845 196.73 60.8565 196.516 60.8565H196.341V59.7293H199.72V60.8565H199.552C199.24 60.8565 199.048 60.8825 198.973 60.9382C198.897 60.9921 198.859 61.1336 198.859 61.3627V63.9265C198.859 64.1516 198.897 64.2911 198.97 64.3468C199.044 64.4005 199.236 64.4284 199.552 64.4284H199.72V65.5539H196.341V64.4284H196.516C196.734 64.4284 196.869 64.3966 196.921 64.3368C196.972 64.2769 196.998 64.1216 196.998 63.8728V62.6117L195.157 63.8728C195.157 64.1257 195.183 64.2811 195.238 64.3409C195.292 64.3987 195.427 64.4284 195.639 64.4284H195.814V65.5539H192.437V64.4284H192.606C192.915 64.4284 193.108 64.4005 193.183 64.3468C193.259 64.2911 193.296 64.1516 193.296 63.9265V61.3627C193.296 61.1375 193.26 60.996 193.187 60.9402C193.112 60.8845 192.919 60.8565 192.606 60.8565H192.437V59.7293H195.814ZM193.437 57.3306C193.437 57.1095 193.512 56.9282 193.663 56.7908C193.814 56.6534 193.997 56.5836 194.209 56.5836C194.399 56.5836 194.552 56.6314 194.669 56.7292C194.784 56.8267 194.893 56.9842 194.994 57.2033C195.118 57.47 195.244 57.6513 195.375 57.743C195.504 57.8347 195.732 57.8786 196.058 57.8786C196.379 57.8786 196.608 57.8347 196.74 57.743C196.873 57.6513 197.002 57.47 197.127 57.2033C197.232 56.9881 197.344 56.8327 197.464 56.733C197.584 56.6335 197.744 56.5836 197.947 56.5836C198.171 56.5836 198.357 56.6534 198.504 56.7949C198.651 56.9343 198.726 57.1095 198.726 57.3188C198.726 57.7052 198.506 58.0419 198.07 58.3347C197.631 58.6255 196.972 58.773 196.092 58.773C195.55 58.773 195.108 58.7252 194.764 58.6294C194.421 58.5339 194.113 58.3706 193.844 58.1353C193.572 57.9024 193.437 57.6336 193.437 57.3306ZM204.962 66.7334L203.944 66.2591L204.589 64.4284H204.811C205.063 64.4284 205.224 64.4164 205.295 64.3925C205.369 64.3686 205.438 64.3168 205.506 64.2351C205.573 64.1535 205.664 63.9842 205.781 63.7272L206.769 61.528C206.831 61.3945 206.863 61.291 206.863 61.2173C206.863 61.0738 206.813 60.9782 206.714 60.9285C206.615 60.8807 206.422 60.8565 206.137 60.8565H205.974V59.7293H211.809V60.8565H211.64C211.33 60.8565 211.138 60.8825 211.063 60.9382C210.987 60.9921 210.95 61.1336 210.95 61.3627V63.9265C210.95 64.1516 210.987 64.2911 211.063 64.3468C211.138 64.4005 211.343 64.4284 211.676 64.4284H211.96L212.616 66.2591L211.6 66.7334C211.353 66.285 211.12 65.9764 210.906 65.8069C210.69 65.6377 210.329 65.5539 209.821 65.5539H206.74C206.234 65.5539 205.871 65.6397 205.654 65.811C205.436 65.9823 205.206 66.2891 204.962 66.7334ZM209.089 64.2929V60.9901H208.369L207.218 63.7908C207.178 63.8846 207.158 63.9483 207.158 63.9842C207.158 64.1195 207.198 64.2053 207.275 64.2412C207.353 64.2752 207.559 64.2929 207.891 64.2929H209.089ZM216.372 59.7293V60.8565H216.197C215.985 60.8565 215.85 60.8866 215.797 60.9464C215.741 61.006 215.715 61.1614 215.715 61.4105V62.6833L217.557 61.4105C217.557 61.1575 217.531 61.0021 217.475 60.9443C217.421 60.8845 217.289 60.8565 217.074 60.8565H216.9V59.7293H220.278V60.8565H220.11C219.798 60.8565 219.606 60.8825 219.531 60.9382C219.455 60.9921 219.418 61.1336 219.418 61.3627V63.9265C219.418 64.1516 219.455 64.2911 219.529 64.3468C219.602 64.4005 219.795 64.4284 220.11 64.4284H220.278V65.5539H216.9V64.4284H217.074C217.293 64.4284 217.427 64.3966 217.479 64.3368C217.531 64.2769 217.557 64.1216 217.557 63.8728V62.6117L215.715 63.8728C215.715 64.1257 215.741 64.2811 215.797 64.3409C215.85 64.3987 215.985 64.4284 216.197 64.4284H216.372V65.5539H212.995V64.4284H213.164C213.473 64.4284 213.666 64.4005 213.741 64.3468C213.817 64.2911 213.854 64.1516 213.854 63.9265V61.3627C213.854 61.1375 213.818 60.996 213.745 60.9402C213.67 60.8845 213.477 60.8565 213.164 60.8565H212.995V59.7293H216.372ZM224.764 62.0239V61.5917C224.764 61.3347 224.742 61.1575 224.701 61.0599C224.657 60.9624 224.58 60.8825 224.469 60.8188C224.356 60.753 224.217 60.7212 224.05 60.7212C223.921 60.7212 223.806 60.743 223.701 60.7849C223.596 60.8288 223.512 60.8825 223.451 60.9482C223.389 61.016 223.318 61.1436 223.237 61.3347C223.131 61.5758 223.006 61.7491 222.862 61.8547C222.715 61.9581 222.544 62.0121 222.346 62.0121C222.098 62.0121 221.895 61.9343 221.737 61.7768C221.578 61.6215 221.499 61.4305 221.499 61.1994C221.499 60.9402 221.58 60.7073 221.743 60.506C221.959 60.2372 222.282 60.0178 222.713 59.8466C223.143 59.6753 223.627 59.5898 224.165 59.5898C224.705 59.5898 225.163 59.6774 225.54 59.8528C225.919 60.0279 226.181 60.2372 226.332 60.4801C226.481 60.7233 226.554 61.0938 226.554 61.5917V63.6815C226.554 63.9364 226.568 64.1018 226.596 64.1735C226.623 64.2451 226.681 64.3088 226.77 64.3627C226.86 64.4184 226.959 64.4444 227.066 64.4444C227.175 64.4444 227.32 64.4146 227.502 64.3507V65.4903C227.173 65.5958 226.858 65.6477 226.554 65.6477C226.199 65.6477 225.893 65.5899 225.643 65.4723C225.391 65.3547 225.179 65.1796 225.008 64.9464C224.621 65.1993 224.27 65.3806 223.953 65.4862C223.637 65.5938 223.332 65.6477 223.038 65.6477C222.485 65.6477 222.036 65.4903 221.695 65.1775C221.354 64.8648 221.183 64.4783 221.183 64.0181C221.183 63.759 221.243 63.5199 221.362 63.3009C221.479 63.0837 221.655 62.8926 221.89 62.7293C222.126 62.566 222.487 62.4204 222.977 62.2948C223.467 62.1675 224.064 62.0778 224.764 62.0239ZM224.764 62.9922C224.256 63.066 223.899 63.1414 223.689 63.2172C223.481 63.2929 223.33 63.3885 223.243 63.5022C223.153 63.6178 223.108 63.7351 223.108 63.8548C223.108 64.0122 223.165 64.1416 223.282 64.2472C223.399 64.3507 223.556 64.4045 223.752 64.4045C223.881 64.4045 224.03 64.3707 224.197 64.305C224.366 64.2392 224.556 64.1416 224.764 64.014V62.9922ZM231.814 65.5539H228.235V64.4284H228.403C228.713 64.4284 228.905 64.4005 228.98 64.3468C229.056 64.2911 229.093 64.1516 229.093 63.9265V61.3627C229.093 61.1375 229.058 60.996 228.984 60.9402C228.909 60.8845 228.716 60.8565 228.403 60.8565H228.235V59.7293H233.536L234.458 61.7014L233.442 62.1754C233.206 61.7432 232.978 61.4384 232.762 61.2589C232.546 61.0797 232.177 60.9901 231.657 60.9901H230.954V63.9265C230.954 64.1516 230.992 64.2911 231.067 64.3468C231.143 64.4005 231.339 64.4284 231.657 64.4284H231.814V65.5539ZM237.482 63.1317V63.8728C237.482 64.1257 237.508 64.2811 237.563 64.3409C237.617 64.3987 237.752 64.4284 237.964 64.4284H238.139V65.5539H234.762V64.4284H234.93C235.24 64.4284 235.432 64.4005 235.508 64.3468C235.583 64.2911 235.621 64.1516 235.621 63.9265V61.3627C235.621 61.1375 235.585 60.996 235.512 60.9402C235.437 60.8845 235.244 60.8565 234.93 60.8565H234.762V59.7293H238.139V60.8565H237.964C237.752 60.8565 237.617 60.8866 237.563 60.9464C237.508 61.006 237.482 61.1614 237.482 61.4105V62.0239H239.323V61.4105C239.323 61.1575 239.297 61.0021 239.242 60.9443C239.188 60.8845 239.055 60.8565 238.841 60.8565H238.666V59.7293H242.045V60.8565H241.876C241.565 60.8565 241.372 60.8825 241.297 60.9382C241.222 60.9921 241.184 61.1336 241.184 61.3627V63.9265C241.184 64.1516 241.222 64.2911 241.295 64.3468C241.368 64.4005 241.561 64.4284 241.876 64.4284H242.045V65.5539H238.666V64.4284H238.841C239.059 64.4284 239.194 64.3966 239.245 64.3368C239.297 64.2769 239.323 64.1216 239.323 63.8728V63.1317H237.482ZM246.247 59.5898C246.91 59.5898 247.487 59.7193 247.979 59.9802C248.471 60.241 248.85 60.5957 249.114 61.0458C249.38 61.4942 249.513 62.0221 249.513 62.6235C249.513 63.5341 249.219 64.2731 248.63 64.8429C248.041 65.4104 247.253 65.6934 246.269 65.6934C245.265 65.6934 244.468 65.4087 243.874 64.8368C243.301 64.2911 243.015 63.5538 243.015 62.6235C243.015 62.0142 243.146 61.4882 243.406 61.0478C243.668 60.6095 244.047 60.2552 244.543 59.9902C245.039 59.7231 245.606 59.5898 246.247 59.5898ZM246.269 60.8666C246.049 60.8666 245.84 60.9344 245.648 61.0658C245.454 61.1973 245.303 61.3925 245.198 61.6495C245.09 61.9066 245.037 62.2332 245.037 62.6297C245.037 63.038 245.09 63.3766 245.194 63.6455C245.299 63.9144 245.444 64.1116 245.628 64.2412C245.811 64.3686 246.013 64.4323 246.235 64.4323C246.577 64.4323 246.868 64.289 247.112 63.9981C247.356 63.7092 247.479 63.259 247.479 62.6476C247.479 62.056 247.366 61.6118 247.138 61.3149C246.912 61.016 246.622 60.8666 246.269 60.8666ZM255.699 63.3487L256.552 64.0998C256.096 64.6575 255.619 65.062 255.127 65.3149C254.635 65.5678 254.11 65.6934 253.548 65.6934C252.647 65.6934 251.898 65.4006 251.294 64.8129C250.693 64.2254 250.392 63.5102 250.392 62.6653C250.392 62.0937 250.532 61.5699 250.812 61.0956C251.094 60.6195 251.479 60.2511 251.969 59.986C252.459 59.7213 253.038 59.5898 253.705 59.5898C254.503 59.5898 255.155 59.775 255.659 60.1476C256.165 60.5181 256.419 60.9105 256.419 61.3229C256.419 61.498 256.379 61.6534 256.3 61.793C256.221 61.9304 256.1 62.0419 255.937 62.1276C255.774 62.2132 255.601 62.2571 255.419 62.2571C255.272 62.2571 255.139 62.2273 255.024 62.1695C254.907 62.1097 254.81 62.036 254.733 61.9463C254.699 61.9083 254.629 61.7869 254.53 61.5858C254.401 61.3329 254.302 61.1654 254.233 61.0838C254.163 61.0021 254.08 60.9382 253.983 60.8945C253.885 60.8486 253.776 60.8268 253.652 60.8268C253.451 60.8268 253.259 60.8925 253.074 61.0219C252.89 61.1534 252.739 61.3506 252.62 61.6135C252.503 61.8785 252.443 62.1754 252.443 62.502C252.443 62.8587 252.513 63.1815 252.652 63.4683C252.792 63.7531 252.979 63.9703 253.213 64.1178C253.447 64.2672 253.707 64.3409 253.989 64.3409C254.26 64.3409 254.534 64.2672 254.808 64.1178C255.084 63.9703 255.379 63.7133 255.699 63.3487ZM262.853 59.4542H263.631L264.514 61.7132L263.498 62.1813C263.129 61.3288 262.597 60.9025 261.899 60.9025C261.696 60.9025 261.597 61.0281 261.597 61.2769V63.9265C261.597 64.1516 261.633 64.2911 261.706 64.3468C261.78 64.4005 261.974 64.4284 262.288 64.4284H262.456V65.5539H258.877V64.4284H259.046C259.355 64.4284 259.548 64.4005 259.623 64.3468C259.699 64.2911 259.737 64.1516 259.737 63.9265V61.2769C259.737 61.0281 259.633 60.9025 259.429 60.9025C258.73 60.9025 258.201 61.3288 257.836 62.1813L256.82 61.7132L257.703 59.4542H258.475L258.574 59.7293H262.754L262.853 59.4542ZM268.381 59.7293V60.8565H268.206C267.994 60.8565 267.859 60.8866 267.805 60.9464C267.75 61.006 267.724 61.1614 267.724 61.4105V62.6833L269.565 61.4105C269.565 61.1575 269.539 61.0021 269.484 60.9443C269.43 60.8845 269.297 60.8565 269.083 60.8565H268.908V59.7293H272.287V60.8565H272.118C271.807 60.8565 271.615 60.8825 271.539 60.9382C271.464 60.9921 271.426 61.1336 271.426 61.3627V63.9265C271.426 64.1516 271.464 64.2911 271.537 64.3468C271.61 64.4005 271.803 64.4284 272.118 64.4284H272.287V65.5539H268.908V64.4284H269.083C269.301 64.4284 269.436 64.3966 269.488 64.3368C269.539 64.2769 269.565 64.1216 269.565 63.8728V62.6117L267.724 63.8728C267.724 64.1257 267.75 64.2811 267.805 64.3409C267.859 64.3987 267.994 64.4284 268.206 64.4284H268.381V65.5539H265.004V64.4284H265.172C265.482 64.4284 265.674 64.4005 265.75 64.3468C265.825 64.2911 265.863 64.1516 265.863 63.9265V61.3627C265.863 61.1375 265.827 60.996 265.754 60.9402C265.678 60.8845 265.486 60.8565 265.172 60.8565H265.004V59.7293H268.381ZM273.339 65.5539V64.4284H273.507C273.817 64.4284 274.009 64.4005 274.085 64.3468C274.16 64.2911 274.198 64.1516 274.198 63.9265V61.3627C274.198 61.1375 274.162 60.996 274.088 60.9402C274.013 60.8845 273.821 60.8565 273.507 60.8565H273.339V59.7293H276.553V60.8565C276.321 60.8565 276.18 60.8866 276.13 60.9482C276.083 61.0122 276.059 61.1396 276.059 61.3347V62.2452L277.297 61.281C277.463 61.1534 277.547 61.0578 277.547 60.996C277.547 60.9025 277.382 60.8565 277.052 60.8565V59.7293H280.424V60.8565C280.199 60.8565 280.027 60.8786 279.906 60.9264C279.786 60.9721 279.586 61.0918 279.306 61.281L278.08 62.1218L279.686 63.9963C279.856 64.1935 279.993 64.315 280.094 64.3607C280.197 64.4045 280.396 64.4284 280.691 64.4284V65.5539H277.162V64.4284H277.297C277.529 64.4284 277.646 64.3807 277.646 64.2869C277.646 64.2292 277.582 64.1178 277.459 63.9544L276.791 63.0919L276.059 63.6396V63.9544C276.059 64.1416 276.088 64.2672 276.148 64.3309C276.208 64.3945 276.324 64.4284 276.495 64.4284H276.616V65.5539H273.339ZM284.61 59.7293V60.8565H284.435C284.223 60.8565 284.088 60.8866 284.034 60.9464C283.979 61.006 283.953 61.1614 283.953 61.4105V62.6833L285.794 61.4105C285.794 61.1575 285.768 61.0021 285.713 60.9443C285.659 60.8845 285.526 60.8565 285.312 60.8565H285.137V59.7293H288.516V60.8565H288.348C288.036 60.8565 287.844 60.8825 287.768 60.9382C287.693 60.9921 287.655 61.1336 287.655 61.3627V63.9265C287.655 64.1516 287.693 64.2911 287.766 64.3468C287.839 64.4005 288.032 64.4284 288.348 64.4284H288.516V65.5539H285.137V64.4284H285.312C285.53 64.4284 285.665 64.3966 285.717 64.3368C285.768 64.2769 285.794 64.1216 285.794 63.8728V62.6117L283.953 63.8728C283.953 64.1257 283.979 64.2811 284.034 64.3409C284.088 64.3987 284.223 64.4284 284.435 64.4284H284.61V65.5539H281.233V64.4284H281.401C281.711 64.4284 281.904 64.4005 281.979 64.3468C282.054 64.2911 282.092 64.1516 282.092 63.9265V61.3627C282.092 61.1375 282.056 60.996 281.983 60.9402C281.908 60.8845 281.715 60.8565 281.401 60.8565H281.233V59.7293H284.61ZM296.99 59.7293V60.8565H296.815C296.603 60.8565 296.468 60.8866 296.414 60.9464C296.359 61.006 296.333 61.1614 296.333 61.4105V62.6833L298.174 61.4105C298.174 61.1575 298.148 61.0021 298.093 60.9443C298.039 60.8845 297.907 60.8565 297.692 60.8565H297.518V59.7293H300.896V60.8565H300.728C300.416 60.8565 300.224 60.8825 300.148 60.9382C300.073 60.9921 300.036 61.1336 300.036 61.3627V63.9265C300.036 64.1516 300.073 64.2911 300.146 64.3468C300.22 64.4005 300.412 64.4284 300.728 64.4284H300.896V65.5539H297.518V64.4284H297.692C297.911 64.4284 298.045 64.3966 298.097 64.3368C298.148 64.2769 298.174 64.1216 298.174 63.8728V62.6117L296.333 63.8728C296.333 64.1257 296.359 64.2811 296.414 64.3409C296.468 64.3987 296.603 64.4284 296.815 64.4284H296.99V65.5539H293.613V64.4284H293.782C294.091 64.4284 294.284 64.4005 294.359 64.3468C294.435 64.2911 294.472 64.1516 294.472 63.9265V61.3627C294.472 61.1375 294.436 60.996 294.363 60.9402C294.288 60.8845 294.095 60.8565 293.782 60.8565H293.613V59.7293H296.99ZM309.806 63.1317H308.045V62.0239H309.852C309.727 61.2253 309.289 60.8268 308.533 60.8268C308.241 60.8268 307.981 60.8945 307.747 61.0299C307.515 61.1675 307.227 61.538 306.882 62.1456L305.876 61.6733L306.882 59.4542H307.65L307.684 59.9462C308.09 59.7072 308.544 59.5898 309.045 59.5898C309.854 59.5898 310.539 59.8666 311.098 60.4202C311.66 60.9762 311.939 61.6914 311.939 62.566C311.939 63.4961 311.636 64.2493 311.032 64.8268C310.427 65.4045 309.678 65.6934 308.783 65.6934C307.624 65.6934 306.622 65.1634 305.777 64.0998L306.626 63.3487C307.184 64.0102 307.753 64.3409 308.334 64.3409C308.703 64.3409 309.025 64.2192 309.297 63.9783C309.57 63.7372 309.739 63.4542 309.806 63.1317ZM312.898 65.5539V64.4284H313.066C313.376 64.4284 313.568 64.4005 313.644 64.3468C313.719 64.2911 313.757 64.1516 313.757 63.9265V61.3627C313.757 61.1375 313.721 60.996 313.648 60.9402C313.572 60.8845 313.38 60.8565 313.066 60.8565H312.898V59.7293H316.112V60.8565C315.88 60.8565 315.739 60.8866 315.689 60.9482C315.641 61.0122 315.618 61.1396 315.618 61.3347V62.2452L316.856 61.281C317.022 61.1534 317.106 61.0578 317.106 60.996C317.106 60.9025 316.941 60.8565 316.612 60.8565V59.7293H319.983V60.8565C319.758 60.8565 319.586 60.8786 319.465 60.9264C319.346 60.9721 319.145 61.0918 318.865 61.281L317.639 62.1218L319.244 63.9963C319.415 64.1935 319.552 64.315 319.653 64.3607C319.756 64.4045 319.955 64.4284 320.25 64.4284V65.5539H316.721V64.4284H316.856C317.088 64.4284 317.205 64.3807 317.205 64.2869C317.205 64.2292 317.142 64.1178 317.018 63.9544L316.35 63.0919L315.618 63.6396V63.9544C315.618 64.1416 315.647 64.2672 315.707 64.3309C315.767 64.3945 315.884 64.4284 316.054 64.4284H316.175V65.5539H312.898ZM326.012 63.3487L326.865 64.0998C326.409 64.6575 325.933 65.062 325.441 65.3149C324.948 65.5678 324.423 65.6934 323.861 65.6934C322.961 65.6934 322.211 65.4006 321.607 64.8129C321.006 64.2254 320.705 63.5102 320.705 62.6653C320.705 62.0937 320.845 61.5699 321.125 61.0956C321.407 60.6195 321.792 60.2511 322.282 59.986C322.772 59.7213 323.351 59.5898 324.018 59.5898C324.816 59.5898 325.468 59.775 325.972 60.1476C326.478 60.5181 326.732 60.9105 326.732 61.3229C326.732 61.498 326.692 61.6534 326.613 61.793C326.534 61.9304 326.413 62.0419 326.25 62.1276C326.087 62.2132 325.915 62.2571 325.732 62.2571C325.585 62.2571 325.453 62.2273 325.338 62.1695C325.22 62.1097 325.123 62.036 325.046 61.9463C325.012 61.9083 324.942 61.7869 324.843 61.5858C324.714 61.3329 324.615 61.1654 324.546 61.0838C324.476 61.0021 324.393 60.9382 324.296 60.8945C324.199 60.8486 324.089 60.8268 323.965 60.8268C323.764 60.8268 323.572 60.8925 323.387 61.0219C323.203 61.1534 323.052 61.3506 322.933 61.6135C322.816 61.8785 322.756 62.1754 322.756 62.502C322.756 62.8587 322.826 63.1815 322.965 63.4683C323.105 63.7531 323.292 63.9703 323.526 64.1178C323.76 64.2672 324.02 64.3409 324.302 64.3409C324.573 64.3409 324.847 64.2672 325.121 64.1178C325.397 63.9703 325.693 63.7133 326.012 63.3487ZM331.073 64.4284V65.5539H327.696V64.4284H327.865C328.175 64.4284 328.367 64.4005 328.442 64.3468C328.518 64.2911 328.556 64.1516 328.556 63.9265V61.3627C328.556 61.1375 328.52 60.996 328.446 60.9402C328.371 60.8845 328.178 60.8565 327.865 60.8565H327.696V59.7293H334.98V60.8565H334.811C334.5 60.8565 334.307 60.8825 334.232 60.9382C334.156 60.9921 334.119 61.1336 334.119 61.3627V63.9265C334.119 64.1516 334.156 64.2911 334.23 64.3468C334.303 64.4005 334.496 64.4284 334.811 64.4284H334.98V65.5539H331.601V64.4284H331.776C331.994 64.4284 332.129 64.3966 332.18 64.3368C332.232 64.2769 332.258 64.1216 332.258 63.8728V60.9901H330.417V63.8728C330.417 64.1257 330.442 64.2811 330.498 64.3409C330.551 64.3987 330.686 64.4284 330.899 64.4284H331.073ZM341.21 63.3946L342.005 64.1994C341.549 64.7253 341.083 65.1058 340.608 65.3408C340.134 65.5758 339.62 65.6934 339.071 65.6934C338.188 65.6934 337.444 65.3927 336.839 64.7931C336.233 64.1915 335.932 63.4642 335.932 62.6117C335.932 62.0519 336.067 61.5399 336.339 61.0738C336.61 60.6095 336.985 60.2451 337.466 59.9842C337.948 59.7213 338.491 59.5898 339.1 59.5898C339.487 59.5898 339.841 59.6455 340.158 59.759C340.475 59.8705 340.753 60.034 340.991 60.243C341.229 60.4524 341.422 60.7073 341.567 61.0039C341.711 61.3029 341.813 61.6097 341.866 61.9304C341.89 62.0896 341.902 62.3428 341.902 62.6892H337.989C337.997 63.1833 338.142 63.5818 338.422 63.8887C338.704 64.1935 339.047 64.3468 339.454 64.3468C339.713 64.3468 339.997 64.2672 340.303 64.1098C340.608 63.9524 340.912 63.7133 341.21 63.3946ZM340.047 61.7073C340.019 61.4741 339.965 61.291 339.882 61.1554C339.799 61.0219 339.686 60.9143 339.545 60.8347C339.402 60.7551 339.255 60.7153 339.1 60.7153C338.938 60.7153 338.779 60.7572 338.628 60.8388C338.477 60.9205 338.356 61.0299 338.265 61.1714C338.174 61.3108 338.114 61.4901 338.089 61.7073H340.047ZM345.364 59.5898V60.2372C345.806 59.9642 346.144 59.7888 346.38 59.7092C346.614 59.6296 346.864 59.5898 347.132 59.5898C347.81 59.5898 348.362 59.8407 348.788 60.3427C349.277 60.9184 349.52 61.6534 349.52 62.548C349.52 63.4044 349.308 64.1195 348.882 64.6953C348.393 65.3609 347.739 65.6934 346.918 65.6934C346.654 65.6934 346.422 65.6636 346.225 65.6038C346.026 65.5439 345.813 65.4325 345.58 65.273V66.4463C345.58 66.6795 345.592 66.821 345.614 66.8667C345.642 66.9244 345.686 66.9663 345.745 66.9923C345.805 67.0181 345.955 67.03 346.195 67.03H346.469V68.1575H342.854V67.03H343.051C343.318 67.03 343.481 67.0202 343.537 66.9981C343.592 66.9763 343.638 66.9324 343.67 66.8648C343.703 66.7971 343.719 66.6576 343.719 66.4463V61.2173H342.854V60.0857C343.273 60.034 343.628 59.9722 343.924 59.8985C344.217 59.8248 344.517 59.7213 344.818 59.5898H345.364ZM345.58 61.4105V63.313C345.58 63.6116 345.608 63.8247 345.663 63.9524C345.719 64.0779 345.816 64.1814 345.955 64.261C346.092 64.3409 346.251 64.3807 346.428 64.3807C346.743 64.3807 347.003 64.2351 347.209 63.9423C347.417 63.6514 347.521 63.2071 347.521 62.6117C347.521 62.0599 347.431 61.6515 347.251 61.3845C347.07 61.1177 346.848 60.9842 346.586 60.9842C346.282 60.9842 345.947 61.1257 345.58 61.4105ZM356.026 59.4542H356.804L357.686 61.7132L356.671 62.1813C356.302 61.3288 355.77 60.9025 355.072 60.9025C354.869 60.9025 354.77 61.0281 354.77 61.2769V63.9265C354.77 64.1516 354.806 64.2911 354.879 64.3468C354.953 64.4005 355.147 64.4284 355.461 64.4284H355.629V65.5539H352.05V64.4284H352.219C352.528 64.4284 352.721 64.4005 352.796 64.3468C352.871 64.2911 352.909 64.1516 352.909 63.9265V61.2769C352.909 61.0281 352.806 60.9025 352.602 60.9025C351.903 60.9025 351.373 61.3288 351.008 62.1813L349.993 61.7132L350.875 59.4542H351.647L351.746 59.7293H355.927L356.026 59.4542ZM361.553 59.7293V60.8565H361.379C361.167 60.8565 361.031 60.8866 360.978 60.9464C360.922 61.006 360.897 61.1614 360.897 61.4105V62.6833L362.738 61.4105C362.738 61.1575 362.712 61.0021 362.656 60.9443C362.603 60.8845 362.47 60.8565 362.256 60.8565H362.081V59.7293H365.46V60.8565H365.291C364.98 60.8565 364.787 60.8825 364.712 60.9382C364.636 60.9921 364.599 61.1336 364.599 61.3627V63.9265C364.599 64.1516 364.637 64.2911 364.71 64.3468C364.783 64.4005 364.976 64.4284 365.291 64.4284H365.46V65.5539H362.081V64.4284H362.256C362.474 64.4284 362.609 64.3966 362.66 64.3368C362.712 64.2769 362.738 64.1216 362.738 63.8728V62.6117L360.897 63.8728C360.897 64.1257 360.922 64.2811 360.978 64.3409C361.031 64.3987 361.167 64.4284 361.379 64.4284H361.553V65.5539H358.176V64.4284H358.345C358.655 64.4284 358.847 64.4005 358.923 64.3468C358.998 64.2911 359.036 64.1516 359.036 63.9265V61.3627C359.036 61.1375 359 60.996 358.926 60.9402C358.851 60.8845 358.659 60.8565 358.345 60.8565H358.176V59.7293H361.553ZM368.18 59.4542L368.265 59.8985C368.642 59.6933 369.067 59.5898 369.539 59.5898C370.271 59.5898 370.819 59.7431 371.182 60.05C371.543 60.3587 371.725 60.7351 371.725 61.1834C371.725 61.8169 371.444 62.2629 370.882 62.52C371.61 62.7532 371.975 63.2133 371.975 63.9026C371.975 64.4544 371.727 64.8906 371.231 65.2132C370.735 65.5339 370.081 65.6934 369.271 65.6934C368.015 65.6934 367.027 65.1634 366.307 64.0998L367.156 63.3487C367.656 64.0281 368.279 64.3686 369.027 64.3686C369.454 64.3686 369.733 64.3108 369.864 64.1935C369.997 64.0779 370.063 63.9144 370.063 63.7033C370.063 63.54 370.009 63.3926 369.906 63.257C369.801 63.1237 369.565 63.056 369.196 63.056H368.406V62.0878H369.126C369.662 62.0878 369.928 61.8706 369.928 61.4402C369.928 61.016 369.654 60.8029 369.103 60.8029C368.858 60.8029 368.604 60.8706 368.339 61.0039C368.073 61.1395 367.765 61.52 367.412 62.1456L366.406 61.6733L367.412 59.4542H368.18ZM375.578 61.9762H377.195C377.953 61.9762 378.489 62.1553 378.798 62.5141C379.108 62.8705 379.264 63.265 379.264 63.6915C379.264 64.1078 379.112 64.5222 378.81 64.9343C378.508 65.3468 377.969 65.5539 377.195 65.5539H372.894V64.4284H373.062C373.372 64.4284 373.564 64.4005 373.64 64.3468C373.715 64.2911 373.753 64.1516 373.753 63.9265V61.3627C373.753 61.1375 373.717 60.996 373.644 60.9402C373.568 60.8845 373.376 60.8565 373.062 60.8565H372.894V59.7293H376.56V60.8565H376.392C376.009 60.8565 375.777 60.8807 375.697 60.9323C375.618 60.9821 375.578 61.1257 375.578 61.3627V61.9762ZM375.578 64.3686H376.491C377.056 64.3686 377.34 64.1535 377.34 63.7213C377.34 63.2929 377.056 63.0798 376.491 63.0798H375.578V64.3686ZM379.624 60.8565V59.7293H383V60.8565H382.832C382.522 60.8565 382.329 60.8825 382.254 60.9382C382.179 60.9921 382.141 61.1336 382.141 61.3627V63.9265C382.141 64.1516 382.179 64.2911 382.254 64.3468C382.329 64.4005 382.522 64.4284 382.832 64.4284H383V65.5539H379.624V64.4284H379.798C380.016 64.4284 380.151 64.3966 380.205 64.3368C380.26 64.2769 380.286 64.1216 380.286 63.8728V61.4105C380.286 61.1575 380.26 61.0021 380.205 60.9443C380.151 60.8845 380.016 60.8565 379.798 60.8565H379.624Z" fill="white"/>
<path fill-rule="evenodd" clip-rule="evenodd" d="M15.3937 41.5416C15.3937 40.1011 15.3337 39.0275 14.9868 37.6392L24.0667 9.05263C23.999 8.80019 23.9632 8.53385 23.963 8.26012L23.9628 8.2563V8.25479C23.9633 7.41155 24.3049 6.64606 24.8554 6.09288C25.4048 5.5413 26.1652 5.19881 27.0032 5.19774L27.007 5.19751H27.0088C27.8481 5.19804 28.6096 5.54108 29.1604 6.09472C29.7093 6.64706 30.0503 7.41077 30.0512 8.25272L30.0515 8.25654V8.25807C30.0513 8.5914 29.9969 8.9132 29.8984 9.21364L38.5669 37.6418C38.2162 39.0279 38.16 40.1034 38.16 41.5416H37.2584V39.2942L26.8442 14.4549L16.2953 39.2971V41.5416H15.3937ZM29.2856 10.2841C29.2445 10.3309 29.2025 10.3756 29.1586 10.4197C28.9114 10.6678 28.6206 10.8743 28.3004 11.0257L27.3346 13.3003L37.6014 37.7882L29.2856 10.2841ZM27.2025 11.309C27.1389 11.3128 27.0755 11.3151 27.0108 11.3151L27.007 11.3154H27.0052C26.1659 11.3149 25.4044 10.9715 24.8539 10.4184C24.7815 10.3457 24.7123 10.2697 24.6477 10.1901L15.9547 37.7969C16.7681 35.8812 26.8345 12.1081 26.8488 12.142L27.2025 11.309ZM26.9764 6.36118L26.9707 6.36149C25.9009 6.36301 25.019 7.24968 25.0187 8.32461L25.019 8.32996C25.0203 9.40466 25.9032 10.2908 26.9728 10.291L26.9784 10.2908C28.0518 10.2893 28.9299 9.4064 28.9301 8.32789L28.9299 8.32256C28.9284 7.24763 28.0462 6.36149 26.9764 6.36118Z" fill="white"/>
<path fill-rule="evenodd" clip-rule="evenodd" d="M26.7058 1.74818V4.89489H27.6532V1.74818H26.7058ZM25.8042 5.34787V1.29527V0.842285H26.255H28.104H28.5548V1.29527V5.34787V5.80085H28.104H26.255H25.8042V5.34787Z" fill="white"/>
<path fill-rule="evenodd" clip-rule="evenodd" d="M26.9741 7.55493C27.4019 7.55493 27.7487 7.90031 27.7487 8.32636C27.7487 8.75233 27.4019 9.09795 26.9741 9.09795C26.5465 9.09795 26.1997 8.75233 26.1997 8.32636C26.1997 7.90031 26.5465 7.55493 26.9741 7.55493Z" fill="white"/>
<path fill-rule="evenodd" clip-rule="evenodd" d="M45.6281 38.0033V45.3942L44.7559 46.2616H29.0756L28.9181 40.6108L40.9327 40.5938L44.1392 37.3935L45.6281 38.0033ZM25.0579 46.2616H2.98794L2.16019 45.1264L8.22901 26.7293L2.15381 9.10886L2.97822 7.96021H24.6178L23.0824 13.5815H10.0351L14.2534 27.0333L8.93464 40.6385L25.0579 40.6159V46.2616ZM29.1918 7.96021H44.7559L45.6281 8.82765V16.6078L44.1085 17.1873L40.8514 13.5815H30.7434L29.1918 7.96021Z" fill="white"/>
<path fill-rule="evenodd" clip-rule="evenodd" d="M25.705 23.7108V47.7016H28.368V23.7108H25.705ZM24.6245 48.1546V23.2578V22.8048H25.1647H28.9083H29.4485V23.2578V48.1546V48.6076H28.9083H25.1647H24.6245V48.1546Z" fill="white"/>
<path fill-rule="evenodd" clip-rule="evenodd" d="M34.98 17.423H32.0967L34.2085 24.4251H39.275L34.98 17.423ZM28.402 17.423H24.6994L22.21 24.4251H31.3543L28.402 17.423ZM21.6158 17.423H17.0195V24.4251H19.3745L21.6158 17.423Z" fill="white"/>
</svg>
